<?xml version="1.0" encoding="utf-8"?>
<!-- Generator: Adobe Illustrator 27.9.0, SVG Export Plug-In . SVG Version: 6.00 Build 0)  -->
<svg version="1.1" id="Layer_1" xmlns="http://www.w3.org/2000/svg" xmlns:xlink="http://www.w3.org/1999/xlink" x="0px" y="0px"
	 viewBox="0 0 1000 1000" style="enable-background:new 0 0 1000 1000;" xml:space="preserve" width="53.87" height="43.61"> 
<style type="text/css">
	.st0{fill:url(#SVGID_1_);}
	.st1{fill:url(#SVGID_00000106146631200153898460000003548877504155556502_);}
	.st2{fill:url(#SVGID_00000008861506905148768270000006972831116523699340_);}
	.st3{fill:url(#SVGID_00000077311621475926008690000013090071933390370736_);}
	.st4{fill:url(#SVGID_00000091719547184101318560000000610348901632990595_);}
	.st5{fill:url(#SVGID_00000182493257964717991140000009469263324237282724_);}
	.st6{fill:url(#SVGID_00000001665986311404851740000009279365053932361123_);}
	.st7{fill:url(#SVGID_00000089537156738474322470000009465965231996860554_);}
	.st8{fill:url(#SVGID_00000101784825398185635780000012476267173561189254_);}
</style>
<g>
	<radialGradient id="SVGID_1_" cx="467.6" cy="340.7174" r="323.4607" gradientUnits="userSpaceOnUse">
		<stop  offset="0" style="stop-color:#FFFFFF"/>
		<stop  offset="1" style="stop-color:#398BCB"/>
	</radialGradient>
	<path class="st0" d="M401.43,460.85c-88.71,0-177.42,0.09-266.14-0.16c-7.37-0.02-9.47,1.85-9.4,9.36
		c0.35,34.94,0.05,69.89-0.05,104.83c-0.04,13.65-6.46,20.57-18.93,20.58c-11.95,0.01-19.28-7.66-19.27-20.81
		c0.02-44.5,0.17-89.01,0.36-133.51c0.06-13.68,6.45-19.98,20.46-20.02c38.23-0.1,76.47-0.19,114.7,0.06
		c6.05,0.04,7.78-1.01,7.61-7.65c-1.98-76.75-0.78-153.51-0.67-230.26c0.02-12.43,6.91-19.12,18.66-19.24
		c11.84-0.12,18.41,6.23,18.72,19.02c1.52,62.12,0.41,124.25,0.36,186.37c-0.01,14.93,0.26,29.87,0.01,44.8
		c-0.09,5.33,1.29,7.48,7.01,7.16c8.64-0.49,17.36-0.67,25.97-0.01c7.1,0.55,8.26-2.2,8.22-8.61c-0.29-47.19-0.31-94.39-0.18-141.58
		c0.07-28.97,0.49-57.94,0.86-86.91c0.18-13.66,6.55-20.23,19.34-20.4c11.36-0.15,18.39,7.45,18.41,20.52
		c0.09,76.17,0.2,152.33-0.12,228.5c-0.03,7.33,2.02,8.3,8.69,8.3c94.39-0.11,188.77-0.03,283.16,0.45
		c8.47,0.04,9.97-2.44,9.95-10.26c-0.25-100.66-0.16-201.32-0.15-301.98c0-16.49,6.81-23.38,23.21-23.39
		c51.08-0.03,102.15-0.05,153.23-0.02c13.98,0.01,21.92,7.92,21.93,22.16c0.11,110.52,0.16,221.03,0.17,331.55
		c0,12.62-8.6,21.26-20.47,21.07c-12-0.19-18.56-7.69-18.56-21.29c0-101.56-0.12-203.11,0.25-304.67
		c0.03-8.97-2.58-10.61-10.89-10.5c-33.45,0.46-66.91,0.38-100.36-0.07c-7.61-0.1-9.98,1.42-9.97,9.65
		c0.18,101.55-0.09,203.11-0.24,304.66c-0.03,17.32-4.41,21.75-21.55,21.75c-88.11,0-176.23,0-264.34,0
		C401.43,460.49,401.43,460.67,401.43,460.85z"/>
	
		<radialGradient id="SVGID_00000170959072368985564740000014178699855293211057_" cx="499.9597" cy="706.8292" r="285.9407" gradientUnits="userSpaceOnUse">
		<stop  offset="0" style="stop-color:#FFFFFF"/>
		<stop  offset="1" style="stop-color:#4FB5E7"/>
	</radialGradient>
	<path style="fill:url(#SVGID_00000170959072368985564740000014178699855293211057_);" d="M422.03,501.81c81.85,0,163.69,0,245.54,0
		c16.34,0,19.37,2.91,19.41,19.09c0.29,114.7,0.62,229.41,0.64,344.11c0,7.27,1.46,9.4,9.09,9.3c34.64-0.47,69.3-0.47,103.94,0.04
		c7.3,0.11,8.04-2.38,8.03-8.51c-0.17-103.05-0.15-206.11-0.13-309.16c0-12.54-0.1-25.1,0.49-37.62
		c0.63-13.19,7.46-19.35,19.81-18.95c10.71,0.35,18.34,8.21,18.47,20.14c0.27,25.69,0.12,51.38,0.12,77.07
		c-0.01,94.39-0.02,188.78-0.09,283.16c0,4.75-0.43,9.52-0.94,14.25c-1.29,12.08-7.72,18.7-19.67,18.74
		c-52.57,0.17-105.15,0.14-157.72-0.14c-14.19-0.08-20.15-6.9-20.14-21.5c0.05-113.51,0.02-227.02,0.4-340.53
		c0.03-8.42-2.39-9.89-10.24-9.87c-155.33,0.36-310.66,0.41-465.98,0.51c-12.24,0.01-20.7-8.61-20.65-20.82
		c0.05-12.68,6.85-19.11,20.49-19.12c83.04-0.03,166.08-0.01,249.12-0.01C422.03,501.93,422.03,501.87,422.03,501.81z"/>
	
		<radialGradient id="SVGID_00000094604137440431593890000016692122889346980524_" cx="380.2254" cy="747.4514" r="201.6249" gradientUnits="userSpaceOnUse">
		<stop  offset="0" style="stop-color:#FFFFFF"/>
		<stop  offset="1" style="stop-color:#79BDE8"/>
	</radialGradient>
	<path style="fill:url(#SVGID_00000094604137440431593890000016692122889346980524_);" d="M611.21,748.77c0,48.4,0,96.8,0,145.19
		c0,14.52-5.07,20.54-17.34,20.67c-13.89,0.15-20.85-6.59-20.85-20.89c0.02-87.83,0.08-175.67,0.39-263.5
		c0.02-6.08-1.07-7.95-7.58-7.92c-69.91,0.32-139.82,0.4-209.72,0.16c-7.21-0.02-8.77,2.03-8.75,8.93
		c0.25,86.64,0.17,173.28,0.2,259.92c0,16.8-5.19,22.18-21.6,22.24c-50.79,0.17-101.58,0.36-152.36,0.47
		c-15.48,0.03-23.98-7.69-24.01-22.51c-0.15-96.79-1.04-193.59,0.89-290.38c0.23-11.69,5.55-18.75,14.85-20.37
		c14.56-2.53,22.35,4.33,22.37,19.85c0.15,87.54,0.46,175.07,0.12,262.6c-0.04,9.5,2.8,10.92,11.31,10.8
		c33.45-0.47,66.92-0.38,100.38,0.07c7.28,0.1,9.39-1.47,9.36-9.11c-0.25-87.53-0.09-175.07-0.03-262.61
		c0.01-17.55,3.46-21.05,20.8-21.04c86.64,0.05,173.28,0.11,259.92,0.18c17.14,0.01,20.91,3.6,20.95,21.17
		c0.12,48.69,0.04,97.39,0.04,146.08C610.77,748.77,610.99,748.77,611.21,748.77z"/>
	
		<radialGradient id="SVGID_00000090987378611037550820000009102076156288919223_" cx="287.0132" cy="235.0789" r="143.644" gradientUnits="userSpaceOnUse">
		<stop  offset="0" style="stop-color:#FFFFFF"/>
		<stop  offset="1" style="stop-color:#4A95D1"/>
	</radialGradient>
	<path style="fill:url(#SVGID_00000090987378611037550820000009102076156288919223_);" d="M424.75,234.36
		c0,43.3,0.05,86.61-0.03,129.91c-0.03,15.68-12.25,23.89-26.89,18.24c-8.46-3.27-11.05-9.9-11.03-18.5
		c0.2-76.45,0.14-152.91,0.55-229.36c0.04-7.93-1.6-10.41-10.06-10.37c-59.73,0.34-119.46,0.21-179.19-0.19
		c-7.84-0.05-10.39,1.49-10.35,9.98c0.37,75.85,0.22,151.71,0.17,227.57c-0.01,16.4-10.85,25.75-24.99,21.69
		c-9.41-2.7-12.93-9.92-13.56-18.89c-0.37-5.35-0.15-10.75-0.14-16.12c0.17-79.44,0.34-158.88,0.53-238.32
		c0.04-17.63,6.18-23.95,23.48-23.97c77.65-0.1,155.3-0.15,232.95-0.17c12.36,0,18.64,6.33,18.65,18.58
		c0.02,43.3,0.01,86.61,0.01,129.91C424.82,234.36,424.79,234.36,424.75,234.36z"/>
	
		<radialGradient id="SVGID_00000143591055793247762890000003972095325287364493_" cx="748.4983" cy="498.7955" r="237.3226" gradientUnits="userSpaceOnUse">
		<stop  offset="0" style="stop-color:#FFFFFF"/>
		<stop  offset="0.9054" style="stop-color:#82CCF1"/>
		<stop  offset="1" style="stop-color:#75C7F0"/>
	</radialGradient>
	<path style="fill:url(#SVGID_00000143591055793247762890000003972095325287364493_);" d="M767.78,499.55
		c0,105.13-0.01,210.26,0.01,315.4c0,10.25-5.91,17.6-15.22,18.72c-11.47,1.38-20.84-4.76-22.79-15.35
		c-0.7-3.78-0.55-7.73-0.55-11.61c0.02-206.08,0.07-412.17,0.11-618.25c0-1.49-0.04-2.99,0-4.48c0.4-13.29,6.77-20.19,18.67-20.26
		c12.64-0.07,19.2,6.74,19.23,20.43c0.14,62.12,0.22,124.25,0.28,186.37c0.04,43.01,0.01,86.02,0.01,129.03
		C767.61,499.55,767.69,499.55,767.78,499.55z"/>
	
		<radialGradient id="SVGID_00000080893363281528718570000001653186317773207187_" cx="592.1448" cy="234.6557" r="106.4187" gradientUnits="userSpaceOnUse">
		<stop  offset="0" style="stop-color:#FFFFFF"/>
		<stop  offset="1" style="stop-color:#486BB3"/>
	</radialGradient>
	<path style="fill:url(#SVGID_00000080893363281528718570000001653186317773207187_);" d="M611.08,236
		c0,42.72,0.01,85.43-0.01,128.15c-0.01,12.79-6.21,19.66-17.74,19.8c-12.54,0.16-20.17-7.03-20.18-19.76
		c-0.04-86.33,0.01-172.66,0.13-258.99c0.02-12.1,7.92-19.87,19.45-19.84c10.96,0.04,18.36,7.82,18.38,19.8
		c0.07,43.61,0.03,87.23,0.03,130.84C611.12,236,611.1,236,611.08,236z"/>
	
		<radialGradient id="SVGID_00000059997190231627678190000013240004844381425813_" cx="249.3243" cy="706.7892" r="90.4338" gradientUnits="userSpaceOnUse">
		<stop  offset="0" style="stop-color:#FFFFFF"/>
		<stop  offset="1" style="stop-color:#52C8EC"/>
	</radialGradient>
	<path style="fill:url(#SVGID_00000059997190231627678190000013240004844381425813_);" d="M230.33,706.29
		c0-35.55,0.38-71.11-0.17-106.65c-0.25-16.09,14.38-21.92,26.82-18.23c7.84,2.32,10.61,8.66,10.65,16.72
		c0.17,35.85,0.68,71.69,0.82,107.54c0.14,35.25,0.02,70.51-0.06,105.76c-0.04,14.75-6.16,21.71-18.87,21.8
		c-12.66,0.1-19.33-6.74-19.36-20.28c-0.08-35.55-0.03-71.1-0.03-106.66C230.2,706.29,230.27,706.29,230.33,706.29z"/>
	
		<radialGradient id="SVGID_00000035506182922239043330000017288992086018660539_" cx="405.7238" cy="787.1232" r="90.9483" gradientUnits="userSpaceOnUse">
		<stop  offset="0" style="stop-color:#FFFFFF"/>
		<stop  offset="1" style="stop-color:#8AAFDD"/>
	</radialGradient>
	<path style="fill:url(#SVGID_00000035506182922239043330000017288992086018660539_);" d="M424.82,787.33
		c0,35.85,0.01,71.69,0,107.54c0,12.42-5.94,19.24-16.89,19.44c-13.69,0.26-21.3-6.42-21.3-19.47
		c-0.03-71.99,0.06-143.98,0.21-215.98c0.02-11.66,7.61-18.92,19.06-18.93c11.64-0.01,18.8,7.21,18.8,18.96
		c0,36.14,0,72.29,0,108.43C424.74,787.33,424.78,787.33,424.82,787.33z"/>
	
		<radialGradient id="SVGID_00000096030151469390832340000012411372394324282296_" cx="892.6834" cy="507.8153" r="63.5959" gradientUnits="userSpaceOnUse">
		<stop  offset="0" style="stop-color:#FFFFFF"/>
		<stop  offset="1" style="stop-color:#1EA9E1"/>
	</radialGradient>
	<path style="fill:url(#SVGID_00000096030151469390832340000012411372394324282296_);" d="M873.12,506.78
		c0-22.69-0.01-45.39,0-68.08c0.01-11.95,6.58-18.43,18.82-18.64c13.27-0.22,20.18,5.65,20.23,18.12
		c0.17,41.51,0.11,83.01,0.04,124.52c-0.01,5.94,0.65,11.92-0.76,17.84c-2.6,10.96-10.23,16.2-21.84,14.83
		c-10.27-1.21-16.51-8.12-16.55-18.71c-0.08-23.29-0.03-46.58-0.03-69.87C873.06,506.78,873.09,506.78,873.12,506.78z"/>
</g>
</svg>
